<svg width="208" height="208" viewBox="0 0 208 208" fill="none" xmlns="http://www.w3.org/2000/svg">
<g filter="url(#filter0_d_22_592)">
<path d="M104 170C147.078 170 182 135.078 182 92C182 48.9218 147.078 14 104 14C60.9218 14 26 48.9218 26 92C26 135.078 60.9218 170 104 170Z" stroke="#C89A5F" stroke-opacity="0.28"/>
<path d="M104 140C130.51 140 152 118.51 152 92C152 65.4903 130.51 44 104 44C77.4903 44 56 65.4903 56 92C56 118.51 77.4903 140 104 140Z" stroke="#C89A5F" stroke-opacity="0.42"/>
<path d="M124 92H174" stroke="#C89A5F" stroke-opacity="0.58"/>
<path d="M121.3 102L164.6 127" stroke="#C89A5F" stroke-opacity="0.28"/>
<path d="M114 109.3L139 152.6" stroke="#C89A5F" stroke-opacity="0.28"/>
<path d="M104 112V162" stroke="#C89A5F" stroke-opacity="0.58"/>
<path d="M94 109.3L69 152.6" stroke="#C89A5F" stroke-opacity="0.28"/>
<path d="M86.7 102L43.4 127" stroke="#C89A5F" stroke-opacity="0.28"/>
<path d="M84 92H34" stroke="#C89A5F" stroke-opacity="0.58"/>
<path d="M86.7 82L43.4 57" stroke="#C89A5F" stroke-opacity="0.28"/>
<path d="M94 74.7L69 31.4" stroke="#C89A5F" stroke-opacity="0.28"/>
<path d="M104 72V22" stroke="#C89A5F" stroke-opacity="0.58"/>
<path d="M114 74.7L139 31.4" stroke="#C89A5F" stroke-opacity="0.28"/>
<path d="M121.3 82L164.6 57" stroke="#C89A5F" stroke-opacity="0.28"/>
<path d="M104 34L154 120H54L104 34Z" stroke="#C89A5F" stroke-opacity="0.36"/>
<path d="M104 150L154 64H54L104 150Z" stroke="#C89A5F" stroke-opacity="0.32"/>
<path d="M104 100C108.418 100 112 96.4183 112 92C112 87.5817 108.418 84 104 84C99.5817 84 96 87.5817 96 92C96 96.4183 99.5817 100 104 100Z" fill="#C89A5F" fill-opacity="0.72"/>
</g>
<defs>
<filter id="filter0_d_22_592" x="0" y="0" width="208" height="208" filterUnits="userSpaceOnUse" color-interpolation-filters="sRGB">
<feFlood flood-opacity="0" result="BackgroundImageFix"/>
<feColorMatrix in="SourceAlpha" type="matrix" values="0 0 0 0 0 0 0 0 0 0 0 0 0 0 0 0 0 0 127 0" result="hardAlpha"/>
<feMorphology radius="8" operator="erode" in="SourceAlpha" result="effect1_dropShadow_22_592"/>
<feOffset dy="12"/>
<feGaussianBlur stdDeviation="11"/>
<feColorMatrix type="matrix" values="0 0 0 0 0 0 0 0 0 0 0 0 0 0 0 0 0 0 0.48 0"/>
<feBlend mode="normal" in2="BackgroundImageFix" result="effect1_dropShadow_22_592"/>
<feBlend mode="normal" in="SourceGraphic" in2="effect1_dropShadow_22_592" result="shape"/>
</filter>
</defs>
</svg>
