<svg width="242" height="86" viewBox="0 0 242 86" fill="none" xmlns="http://www.w3.org/2000/svg">
<g filter="url(#filter0_d_22_721)">
<path d="M207 5H35C25.0589 5 17 13.0589 17 23V39C17 48.9411 25.0589 57 35 57H207C216.941 57 225 48.9411 225 39V23C225 13.0589 216.941 5 207 5Z" fill="#05070B" fill-opacity="0.72" stroke="#E2C28C" stroke-opacity="0.72" stroke-width="1.2"/>
<path d="M205 12H37C31.4772 12 27 16.4772 27 22V40C27 45.5228 31.4772 50 37 50H205C210.523 50 215 45.5228 215 40V22C215 16.4772 210.523 12 205 12Z" stroke="#C89A5F" stroke-opacity="0.28"/>
<path d="M40 31L52 19L64 31L52 43L40 31Z" stroke="#E2C28C" stroke-opacity="0.62"/>
<path d="M200 35C202.209 35 204 33.2091 204 31C204 28.7909 202.209 27 200 27C197.791 27 196 28.7909 196 31C196 33.2091 197.791 35 200 35Z" fill="#E2C28C" fill-opacity="0.72"/>
<path d="M85 49H157" stroke="#C89A5F" stroke-opacity="0.28"/>
<path d="M112.333 33V22.0909H116.424C117.262 22.0909 117.965 22.2365 118.534 22.5277C119.105 22.8189 119.537 23.2273 119.828 23.7528C120.123 24.2749 120.27 24.8839 120.27 25.5799C120.27 26.2795 120.121 26.8867 119.823 27.4016C119.528 27.913 119.093 28.3089 118.518 28.5895C117.942 28.8665 117.236 29.005 116.398 29.005H113.484V27.3643H116.131C116.621 27.3643 117.023 27.2969 117.335 27.1619C117.648 27.0234 117.878 26.8228 118.028 26.56C118.18 26.2937 118.257 25.967 118.257 25.5799C118.257 25.1928 118.18 24.8626 118.028 24.5891C117.875 24.3121 117.642 24.1026 117.33 23.9606C117.017 23.815 116.614 23.7422 116.121 23.7422H114.31V33H112.333ZM117.969 28.0568L120.67 33H118.464L115.812 28.0568H117.969ZM122.089 33V22.0909H126.18C127.018 22.0909 127.721 22.2472 128.289 22.5597C128.861 22.8722 129.293 23.3018 129.584 23.8487C129.879 24.392 130.026 25.0099 130.026 25.7024C130.026 26.402 129.879 27.0234 129.584 27.5668C129.289 28.1101 128.854 28.538 128.279 28.8505C127.704 29.1594 126.995 29.3139 126.153 29.3139H123.442V27.6893H125.887C126.377 27.6893 126.778 27.604 127.091 27.4336C127.403 27.2631 127.634 27.0288 127.783 26.7305C127.936 26.4322 128.012 26.0895 128.012 25.7024C128.012 25.3153 127.936 24.9744 127.783 24.6797C127.634 24.3849 127.402 24.1559 127.086 23.9925C126.773 23.8256 126.37 23.7422 125.876 23.7422H124.065V33H122.089ZM132.845 31.6896C132.522 31.6896 132.245 31.576 132.014 31.3487C131.783 31.1179 131.67 30.8409 131.673 30.5178C131.67 30.1982 131.783 29.9247 132.014 29.6974C132.245 29.4702 132.522 29.3565 132.845 29.3565C133.158 29.3565 133.429 29.4702 133.66 29.6974C133.894 29.9247 134.013 30.1982 134.017 30.5178C134.013 30.7344 133.957 30.9315 133.847 31.109C133.74 31.2866 133.598 31.4286 133.42 31.5352C133.246 31.6381 133.055 31.6896 132.845 31.6896ZM132.845 26.283C132.522 26.283 132.245 26.1694 132.014 25.9421C131.783 25.7113 131.67 25.4343 131.673 25.1112C131.67 24.7915 131.783 24.5181 132.014 24.2908C132.245 24.06 132.522 23.9446 132.845 23.9446C133.158 23.9446 133.429 24.06 133.66 24.2908C133.894 24.5181 134.013 24.7915 134.017 25.1112C134.013 25.3242 133.957 25.5195 133.847 25.6971C133.74 25.8746 133.598 26.0167 133.42 26.1232C133.246 26.2298 133.055 26.283 132.845 26.283ZM143.74 33.2077C142.862 33.2077 142.11 32.9858 141.481 32.5419C140.856 32.0945 140.375 31.4499 140.038 30.6083C139.704 29.7631 139.537 28.7457 139.537 27.5561C139.54 26.3665 139.709 25.3544 140.043 24.5199C140.38 23.6818 140.861 23.0426 141.486 22.6023C142.115 22.1619 142.866 21.9418 143.74 21.9418C144.613 21.9418 145.364 22.1619 145.993 22.6023C146.621 23.0426 147.102 23.6818 147.436 24.5199C147.774 25.358 147.942 26.37 147.942 27.5561C147.942 28.7493 147.774 29.7685 147.436 30.6136C147.102 31.4553 146.621 32.098 145.993 32.5419C145.368 32.9858 144.617 33.2077 143.74 33.2077ZM143.74 31.5405C144.421 31.5405 144.959 31.2049 145.354 30.5337C145.751 29.859 145.95 28.8665 145.95 27.5561C145.95 26.6896 145.86 25.9616 145.678 25.3722C145.497 24.7827 145.242 24.3388 144.911 24.0405C144.581 23.7386 144.191 23.5877 143.74 23.5877C143.061 23.5877 142.525 23.9251 142.131 24.5998C141.737 25.271 141.538 26.2564 141.534 27.5561C141.531 28.4261 141.618 29.1577 141.795 29.7507C141.976 30.3437 142.232 30.7912 142.562 31.093C142.893 31.3913 143.285 31.5405 143.74 31.5405Z" fill="#E8C58D" fill-opacity="0.95"/>
</g>
<defs>
<filter id="filter0_d_22_721" x="0" y="0" width="242" height="86" filterUnits="userSpaceOnUse" color-interpolation-filters="sRGB">
<feFlood flood-opacity="0" result="BackgroundImageFix"/>
<feColorMatrix in="SourceAlpha" type="matrix" values="0 0 0 0 0 0 0 0 0 0 0 0 0 0 0 0 0 0 127 0" result="hardAlpha"/>
<feMorphology radius="8" operator="erode" in="SourceAlpha" result="effect1_dropShadow_22_721"/>
<feOffset dy="12"/>
<feGaussianBlur stdDeviation="11"/>
<feColorMatrix type="matrix" values="0 0 0 0 0 0 0 0 0 0 0 0 0 0 0 0 0 0 0.48 0"/>
<feBlend mode="normal" in2="BackgroundImageFix" result="effect1_dropShadow_22_721"/>
<feBlend mode="normal" in="SourceGraphic" in2="effect1_dropShadow_22_721" result="shape"/>
</filter>
</defs>
</svg>
