<?xml version="1.0" encoding="UTF-8" standalone="no"?>
<svg
   width="9.1877"
   height="13.5933"
   viewBox="0 0 9.1877 13.5933"
   fill="none"
   version="1.1"
   id="svg1"
   sodipodi:docname="line_hlu.svg"
   inkscape:version="1.4.2 (f4327f4, 2025-05-13)"
   xmlns:inkscape="http://www.inkscape.org/namespaces/inkscape"
   xmlns:sodipodi="http://sodipodi.sourceforge.net/DTD/sodipodi-0.dtd"
   xmlns="http://www.w3.org/2000/svg"
   xmlns:svg="http://www.w3.org/2000/svg">
  <defs
     id="defs1" />
  <sodipodi:namedview
     id="namedview1"
     pagecolor="#ffffff"
     bordercolor="#000000"
     borderopacity="0.25"
     inkscape:showpageshadow="2"
     inkscape:pageopacity="0.0"
     inkscape:pagecheckerboard="0"
     inkscape:deskcolor="#d1d1d1"
     inkscape:zoom="59.367483"
     inkscape:cx="4.5984769"
     inkscape:cy="6.7798057"
     inkscape:window-width="1920"
     inkscape:window-height="1009"
     inkscape:window-x="-8"
     inkscape:window-y="-8"
     inkscape:window-maximized="1"
     inkscape:current-layer="svg1" />
  <path
     d="M0 6.4279 L0 5.272 C1.6024 5.3468 4.6516 5.3884 9.1877 5.3978 L9.1877 6.2687 C5.3074 6.3013 1.9418 6.361 0 6.4279 Z M9.1877 10.1878 C7.3258 10.1767 5.1335 10.1702 2.5677 10.1674 C1.6604 10.1663 0.8055 10.1656 0 10.1652 L0 9.3578 C0.1964 9.358 0.3937 9.3583 0.5918 9.3587 C4.2538 9.365 7.0476 9.3673 9.1877 9.3535 L9.1877 10.1878 Z M9.1877 7.8596 L9.1877 8.5608 C7.2097 8.5571 4.6905 8.5366 1.5822 8.4998 C1.0411 8.4934 0.5135 8.4876 0 8.4823 L0 7.7315 C3.904 7.7606 6.9207 7.8015 9.1877 7.8596 Z"
     fill="black"
     id="path1"
     style="fill:#d3bc5f" />
</svg>
